<svg width="80" height="80" viewBox="0 0 80 80" fill="none" xmlns="http://www.w3.org/2000/svg">
<circle cx="36.5" cy="29.5" r="27.5" fill="white"/>
<path d="M48 16C42.7296 15.9993 37.8411 17.7051 33.8816 20.5919C29.921 23.4786 26.8774 27.547 25.2688 32.2858C24.9849 33.1226 25.4331 34.0312 26.2698 34.3151C27.1066 34.5991 28.0151 34.151 28.2991 33.3142C29.6906 29.213 32.331 25.6814 35.7664 23.178C39.2029 20.6749 43.4224 19.2007 48 19.2C53.747 19.2008 58.937 21.5263 62.7066 25.2934C66.4737 29.063 68.7992 34.253 68.8 40C68.7992 45.747 66.4737 50.937 62.7066 54.7066C58.937 58.4737 53.747 60.7992 48 60.8C43.4224 60.7993 39.2029 59.3251 35.7664 56.8219C32.331 54.3186 29.6906 50.787 28.2991 46.6858C28.0151 45.849 27.1066 45.4009 26.2698 45.6849C25.4331 45.9688 24.9849 46.8774 25.2689 47.7142C26.8774 52.453 29.921 56.5214 33.8816 59.4081C37.8411 62.2949 42.7295 64.0007 48 64C61.2527 63.9986 71.9986 53.2527 72 40C71.9986 26.7473 61.2527 16.0013 48 16Z" fill="black" fill-opacity="0.47"/>
<path d="M44.1043 41.6L9.6 41.6C8.71636 41.6 8 40.8836 8 40C8 39.1163 8.71636 38.4 9.6 38.4L44.1043 38.4L35.522 29.8177C34.8971 29.1928 34.8971 28.1798 35.5219 27.5549C36.1468 26.9301 37.1599 26.9301 37.7847 27.5549L50.2298 40L37.7847 52.4451C37.1599 53.0699 36.1468 53.0699 35.522 52.4451C34.8972 51.8203 34.8972 50.8072 35.522 50.1823L44.1043 41.6Z" fill="black" fill-opacity="0.47"/>
</svg>
