<svg width="22" height="22" viewBox="0 0 22 22" fill="none" xmlns="http://www.w3.org/2000/svg">
<g id="Icons">
<g id="Group">
<path id="Vector" d="M5.63755 6.60005C5.77505 6.73755 5.9813 6.8063 6.1188 6.8063C6.2563 6.8063 6.46255 6.73755 6.60005 6.60005C6.87505 6.32505 6.87505 5.91255 6.60005 5.63755L5.1563 4.1938C4.8813 3.9188 4.4688 3.9188 4.1938 4.1938C3.9188 4.4688 3.9188 4.8813 4.1938 5.1563L5.63755 6.60005Z" fill="white"/>
<path id="Vector_2" d="M4.8125 11C4.8125 10.5875 4.5375 10.3125 4.125 10.3125H2.0625C1.65 10.3125 1.375 10.5875 1.375 11C1.375 11.4125 1.65 11.6875 2.0625 11.6875H4.125C4.5375 11.6875 4.8125 11.4125 4.8125 11Z" fill="white"/>
<path id="Vector_3" d="M5.63755 15.4001L4.1938 16.8438C3.9188 17.1188 3.9188 17.5313 4.1938 17.8063C4.3313 17.9438 4.53755 18.0126 4.67505 18.0126C4.81255 18.0126 5.0188 17.9438 5.1563 17.8063L6.60005 16.3626C6.87505 16.0876 6.87505 15.6751 6.60005 15.4001C6.32505 15.1251 5.91255 15.1251 5.63755 15.4001Z" fill="white"/>
</g>
<path id="Vector_4" d="M20.2125 11.1375C19.9375 11 19.5938 11.0688 19.3875 11.3438C18.8375 12.0312 18.0125 12.375 17.1875 12.375C15.6062 12.375 14.2313 11.0688 14.2313 9.41875C14.2313 8.31875 14.85 7.35625 15.8125 6.80625C16.0875 6.66875 16.225 6.325 16.1562 6.05C16.0875 5.775 15.8125 5.5 15.4688 5.5C15.4 5.5 15.2625 5.5 15.1938 5.5C13.8875 5.5 12.65 5.98125 11.6875 6.7375V2.0625C11.6875 1.65 11.4125 1.375 11 1.375C10.5875 1.375 10.3125 1.65 10.3125 2.0625V5.56875C7.63125 5.9125 5.5 8.25 5.5 11C5.5 13.75 7.63125 16.0875 10.3125 16.4312V19.9375C10.3125 20.35 10.5875 20.625 11 20.625C11.4125 20.625 11.6875 20.35 11.6875 19.9375V15.2625C12.65 16.0875 13.8875 16.5 15.1938 16.5C17.9438 16.5 20.2125 14.5063 20.625 11.825C20.6938 11.55 20.4875 11.2063 20.2125 11.1375ZM11.6875 13.75C11.6875 14.1625 11.4125 14.4375 11 14.4375C10.5875 14.4375 10.3125 14.1625 10.3125 13.75V8.25C10.3125 7.8375 10.5875 7.5625 11 7.5625C11.4125 7.5625 11.6875 7.8375 11.6875 8.25V13.75Z" fill="white"/>
</g>
</svg>
