<svg width="168" height="173" viewBox="0 0 168 173" fill="none" xmlns="http://www.w3.org/2000/svg">
<g clip-path="url(#clip0_13_54)">
<path fill-rule="evenodd" clip-rule="evenodd" d="M10.2848 130.315H157.716C160.442 130.313 163.056 129.225 164.984 127.292C166.912 125.359 167.997 122.738 168 120.004V10.3113C167.997 7.57746 166.912 4.95646 164.984 3.02336C163.056 1.09026 160.442 0.00295166 157.716 0H10.2848C7.55833 0.00286238 4.94431 1.09014 3.01637 3.02326C1.08844 4.95638 0.00405884 7.57743 0.00120544 10.3113V120.004C0.00405884 122.738 1.08844 125.359 3.01637 127.292C4.94431 129.225 7.55833 130.313 10.2848 130.315ZM157.716 5.4062C159.013 5.40763 160.256 5.92487 161.173 6.84444C162.091 7.76401 162.606 9.01081 162.608 10.3113V120.004C162.606 121.305 162.091 122.551 161.173 123.471C160.256 124.391 159.013 124.908 157.716 124.909H10.2848C8.98785 124.908 7.7444 124.391 6.8273 123.471C5.91019 122.551 5.39435 121.305 5.39291 120.004V10.3113C5.39435 9.01081 5.91019 7.76401 6.8273 6.84444C7.7444 5.92487 8.98785 5.40763 10.2848 5.4062H157.716Z" fill="black"/>
<path fill-rule="evenodd" clip-rule="evenodd" d="M2.69736 108.312H165.304C166.019 108.312 166.705 108.027 167.21 107.52C167.716 107.013 168 106.325 168 105.609C168 104.892 167.716 104.204 167.21 103.697C166.705 103.19 166.019 102.905 165.304 102.905H2.69566C1.98064 102.905 1.29489 103.19 0.789291 103.697C0.283691 104.204 -0.000350952 104.892 -0.000350952 105.609C-0.000350952 106.325 0.283691 107.013 0.789291 107.52C1.29489 108.027 1.98064 108.312 2.69566 108.312H2.69736Z" fill="black"/>
<path fill-rule="evenodd" clip-rule="evenodd" d="M64.9016 151.162H100.872C101.587 151.162 102.273 150.878 102.778 150.371C103.284 149.864 103.568 149.176 103.568 148.459V127.612C103.568 126.895 103.284 126.208 102.778 125.701C102.273 125.194 101.587 124.909 100.872 124.909H64.9016C64.1866 124.909 63.5008 125.194 62.9952 125.701C62.4896 126.208 62.2056 126.895 62.2056 127.612V148.459C62.2062 149.176 62.4904 149.863 62.9959 150.37C63.5014 150.877 64.1868 151.162 64.9016 151.162ZM98.1762 145.756H67.5976V130.315H98.1762V145.756Z" fill="black"/>
<path fill-rule="evenodd" clip-rule="evenodd" d="M43.6169 173H122.158C122.873 173 123.559 172.715 124.064 172.208C124.57 171.701 124.854 171.014 124.854 170.297V156.399C124.85 153.578 123.731 150.872 121.741 148.877C119.751 146.882 117.053 145.759 114.238 145.755H51.5367C48.7224 145.759 46.0245 146.882 44.0344 148.877C42.0444 150.872 40.9248 153.578 40.9212 156.399V170.297C40.9212 171.014 41.2052 171.701 41.7108 172.208C42.2164 172.715 42.9018 173 43.6169 173ZM119.462 167.595H46.3129V156.401C46.3147 155.013 46.8656 153.681 47.8448 152.7C48.824 151.718 50.1516 151.165 51.5364 151.164H114.238C115.623 151.165 116.951 151.718 117.93 152.7C118.909 153.681 119.46 155.013 119.462 156.401V167.595L119.462 167.595Z" fill="black"/>
<path fill-rule="evenodd" clip-rule="evenodd" d="M17.0469 118.24H26.5244C27.2395 118.24 27.9252 117.955 28.4308 117.449C28.9364 116.942 29.2205 116.254 29.2205 115.537C29.2205 114.82 28.9364 114.132 28.4308 113.626C27.9252 113.119 27.2395 112.834 26.5244 112.834H17.0469C16.3319 112.834 15.6462 113.119 15.1406 113.626C14.635 114.132 14.3509 114.82 14.3509 115.537C14.3509 116.254 14.635 116.942 15.1406 117.449C15.6462 117.955 16.3319 118.24 17.0469 118.24Z" fill="black"/>
<path fill-rule="evenodd" clip-rule="evenodd" d="M37.4066 118.24H46.8841C47.5991 118.24 48.2848 117.955 48.7904 117.449C49.296 116.942 49.5801 116.254 49.5801 115.537C49.5801 114.82 49.296 114.132 48.7904 113.626C48.2848 113.119 47.5991 112.834 46.8841 112.834H37.4066C36.6915 112.834 36.0058 113.119 35.5002 113.626C34.9946 114.132 34.7105 114.82 34.7105 115.537C34.7105 116.254 34.9946 116.942 35.5002 117.449C36.0058 117.955 36.6915 118.24 37.4066 118.24Z" fill="black"/>
<path fill-rule="evenodd" clip-rule="evenodd" d="M59.2588 118.24H68.7364C69.4514 118.24 70.1371 117.955 70.6427 117.449C71.1483 116.942 71.4324 116.254 71.4324 115.537C71.4324 114.82 71.1483 114.132 70.6427 113.626C70.1371 113.119 69.4514 112.834 68.7364 112.834H59.2588C58.5438 112.834 57.8581 113.119 57.3525 113.626C56.8469 114.132 56.5628 114.82 56.5628 115.537C56.5628 116.254 56.8469 116.942 57.3525 117.449C57.8581 117.955 58.5438 118.24 59.2588 118.24Z" fill="black"/>
<path fill-rule="evenodd" clip-rule="evenodd" d="M90.3018 73.9701C90.8346 73.9695 91.3552 73.8107 91.798 73.5136C92.2408 73.2166 92.5859 72.7946 92.7898 72.301C92.9936 71.8075 93.047 71.2644 92.9433 70.7404C92.8395 70.2165 92.5833 69.735 92.2069 69.357L77.0492 54.1558L92.2092 38.956C92.6966 38.4455 92.9652 37.7639 92.9575 37.0572C92.9497 36.3506 92.6663 35.675 92.168 35.1753C91.6696 34.6756 90.9959 34.3914 90.2911 34.3837C89.5863 34.376 88.9066 34.6453 88.3974 35.1339L71.335 52.2439C70.8296 52.7509 70.5458 53.4383 70.5458 54.155C70.5458 54.8717 70.8296 55.5591 71.335 56.066L88.3957 73.1774C88.6459 73.429 88.9432 73.6286 89.2705 73.7646C89.5978 73.9007 89.9488 73.9705 90.3031 73.9701H90.3018Z" fill="black"/>
<path fill-rule="evenodd" clip-rule="evenodd" d="M119.848 73.9701C120.202 73.9704 120.552 73.9007 120.88 73.765C121.207 73.6292 121.504 73.4301 121.754 73.1791L138.82 56.0677C139.071 55.8167 139.269 55.5186 139.405 55.1906C139.541 54.8625 139.61 54.5109 139.61 54.1558C139.61 53.8008 139.541 53.4491 139.405 53.1211C139.269 52.7931 139.071 52.495 138.82 52.244L121.756 35.134C121.25 34.6269 120.564 34.342 119.849 34.342C119.134 34.342 118.448 34.6269 117.942 35.134C117.437 35.641 117.153 36.3288 117.153 37.0459C117.153 37.763 117.437 38.4507 117.942 38.9577L133.101 54.1558L117.943 69.3543C117.565 69.7323 117.308 70.214 117.204 70.7386C117.099 71.2632 117.153 71.8071 117.357 72.3013C117.561 72.7955 117.907 73.2179 118.35 73.5151C118.794 73.8122 119.315 73.9707 119.849 73.9705L119.848 73.9701Z" fill="black"/>
<path fill-rule="evenodd" clip-rule="evenodd" d="M111.639 77.9508C112.067 77.9501 112.489 77.8473 112.87 77.651C113.25 77.4547 113.579 77.1704 113.829 76.8217C114.078 76.4729 114.241 76.0697 114.305 75.6452C114.368 75.2208 114.33 74.7873 114.194 74.3805L99.5181 30.8897C99.4047 30.5533 99.2264 30.2427 98.9933 29.9755C98.7602 29.7083 98.4768 29.4897 98.1595 29.3323C97.8421 29.1749 97.497 29.0817 97.1437 29.058C96.7904 29.0343 96.436 29.0807 96.1006 29.1944C95.7652 29.3081 95.4553 29.4869 95.1889 29.7206C94.9224 29.9544 94.7044 30.2384 94.5474 30.5566C94.3904 30.8748 94.2974 31.2209 94.2738 31.5751C94.2502 31.9294 94.2964 32.2848 94.4098 32.6211L109.085 76.115C109.266 76.6503 109.61 77.1152 110.068 77.4446C110.526 77.774 111.076 77.9513 111.639 77.9515V77.9508Z" fill="black"/>
<path fill-rule="evenodd" clip-rule="evenodd" d="M19.8366 27.4305H42.9924C43.7074 27.4305 44.3932 27.1457 44.8988 26.6387C45.4044 26.1317 45.6884 25.4441 45.6884 24.7272C45.6884 24.0102 45.4044 23.3227 44.8988 22.8157C44.3932 22.3087 43.7074 22.0239 42.9924 22.0239H19.8366C19.1216 22.0239 18.4359 22.3087 17.9303 22.8157C17.4247 23.3227 17.1406 24.0102 17.1406 24.7272C17.1406 25.4441 17.4247 26.1317 17.9303 26.6387C18.4359 27.1457 19.1216 27.4305 19.8366 27.4305Z" fill="black"/>
<path fill-rule="evenodd" clip-rule="evenodd" d="M19.8366 42.1453H42.9924C43.7074 42.1453 44.3932 41.8605 44.8988 41.3535C45.4044 40.8466 45.6884 40.159 45.6884 39.442C45.6884 38.7251 45.4044 38.0375 44.8988 37.5305C44.3932 37.0236 43.7074 36.7388 42.9924 36.7388H19.8366C19.1216 36.7388 18.4359 37.0236 17.9303 37.5305C17.4247 38.0375 17.1406 38.7251 17.1406 39.442C17.1406 40.159 17.4247 40.8466 17.9303 41.3535C18.4359 41.8605 19.1216 42.1453 19.8366 42.1453Z" fill="black"/>
<path fill-rule="evenodd" clip-rule="evenodd" d="M19.8366 56.8601H42.9924C43.7074 56.8601 44.3932 56.5753 44.8988 56.0684C45.4044 55.5614 45.6884 54.8738 45.6884 54.1569C45.6884 53.4399 45.4044 52.7523 44.8988 52.2454C44.3932 51.7384 43.7074 51.4536 42.9924 51.4536H19.8366C19.1216 51.4536 18.4359 51.7384 17.9303 52.2454C17.4247 52.7523 17.1406 53.4399 17.1406 54.1569C17.1406 54.8738 17.4247 55.5614 17.9303 56.0684C18.4359 56.5753 19.1216 56.8601 19.8366 56.8601Z" fill="black"/>
<path fill-rule="evenodd" clip-rule="evenodd" d="M19.8366 71.5745H42.9924C43.7074 71.5745 44.3932 71.2897 44.8988 70.7827C45.4044 70.2758 45.6884 69.5882 45.6884 68.8712C45.6884 68.1543 45.4044 67.4667 44.8988 66.9597C44.3932 66.4528 43.7074 66.168 42.9924 66.168H19.8366C19.1216 66.168 18.4359 66.4528 17.9303 66.9597C17.4247 67.4667 17.1406 68.1543 17.1406 68.8712C17.1406 69.5882 17.4247 70.2758 17.9303 70.7827C18.4359 71.2897 19.1216 71.5745 19.8366 71.5745Z" fill="black"/>
<path fill-rule="evenodd" clip-rule="evenodd" d="M19.8366 86.2896H42.9924C43.7074 86.2896 44.3932 86.0048 44.8988 85.4978C45.4044 84.9909 45.6884 84.3033 45.6884 83.5863C45.6884 82.8694 45.4044 82.1818 44.8988 81.6748C44.3932 81.1679 43.7074 80.8831 42.9924 80.8831H19.8366C19.1216 80.8831 18.4359 81.1679 17.9303 81.6748C17.4247 82.1818 17.1406 82.8694 17.1406 83.5863C17.1406 84.3033 17.4247 84.9909 17.9303 85.4978C18.4359 86.0048 19.1216 86.2896 19.8366 86.2896Z" fill="black"/>
<path fill-rule="evenodd" clip-rule="evenodd" d="M63.6985 87.2709H142.945C145.043 87.2684 147.055 86.4317 148.538 84.9442C150.022 83.4566 150.857 81.4398 150.859 79.3361V28.9776C150.857 26.8738 150.022 24.8569 148.539 23.3693C147.055 21.8817 145.043 21.0449 142.945 21.0425H63.6985C61.6002 21.0448 59.5886 21.8815 58.1048 23.3691C56.621 24.8567 55.7863 26.8737 55.7837 28.9776V79.3361C55.7865 81.4399 56.6214 83.4566 58.1051 84.9441C59.5888 86.4316 61.6003 87.2683 63.6985 87.2709ZM142.945 26.449C143.614 26.4505 144.254 26.7174 144.727 27.1913C145.199 27.6652 145.466 28.3074 145.467 28.9776V79.3361C145.466 80.0064 145.2 80.649 144.727 81.123C144.255 81.597 143.614 81.8637 142.945 81.8646H63.6985C63.0299 81.8635 62.389 81.5968 61.9161 81.1229C61.4432 80.6489 61.1769 80.0065 61.1754 79.3361V28.9776C61.1769 28.3072 61.4432 27.6647 61.9161 27.1908C62.389 26.7169 63.0299 26.4502 63.6985 26.449H142.945Z" fill="black"/>
<path fill-rule="evenodd" clip-rule="evenodd" d="M142.945 21.0426H63.6985C61.6002 21.045 59.5886 21.8817 58.1048 23.3693C56.621 24.8569 55.7862 26.8738 55.7836 28.9777V79.3362C55.7865 81.44 56.6213 83.4568 58.1051 84.9443C59.5888 86.4317 61.6003 87.2685 63.6985 87.271H142.945C145.043 87.2686 147.055 86.4318 148.538 84.9443C150.022 83.4568 150.857 81.4399 150.859 79.3362V28.9774C150.857 26.8736 150.022 24.8567 148.538 23.3691C147.055 21.8815 145.043 21.0447 142.945 21.0423V21.0426ZM162.608 102.905H5.39305V10.3113C5.39447 9.01086 5.91032 7.76407 6.82742 6.8445C7.74454 5.92492 8.98799 5.40768 10.285 5.40625H157.716C159.013 5.40768 160.256 5.92492 161.174 6.8445C162.091 7.76407 162.607 9.01086 162.608 10.3113V102.905ZM42.9921 80.8832H19.8363C19.1212 80.8832 18.4355 81.168 17.9299 81.6749C17.4243 82.1819 17.1403 82.8695 17.1403 83.5864C17.1403 84.3034 17.4243 84.991 17.9299 85.4979C18.4355 86.0049 19.1212 86.2897 19.8363 86.2897H42.9921C43.7071 86.2897 44.3928 86.0049 44.8984 85.4979C45.404 84.991 45.6881 84.3034 45.6881 83.5864C45.6881 82.8695 45.404 82.1819 44.8984 81.6749C44.3928 81.168 43.7071 80.8832 42.9921 80.8832ZM42.9921 66.1683H19.8363C19.1212 66.1683 18.4355 66.4531 17.9299 66.96C17.4243 67.467 17.1403 68.1546 17.1403 68.8715C17.1403 69.5885 17.4243 70.2761 17.9299 70.783C18.4355 71.29 19.1212 71.5748 19.8363 71.5748H42.9921C43.7071 71.5748 44.3928 71.29 44.8984 70.783C45.404 70.2761 45.6881 69.5885 45.6881 68.8715C45.6881 68.1546 45.404 67.467 44.8984 66.96C44.3928 66.4531 43.7071 66.1683 42.9921 66.1683ZM42.9921 51.454H19.8363C19.1212 51.454 18.4355 51.7389 17.9299 52.2458C17.4243 52.7528 17.1403 53.4404 17.1403 54.1573C17.1403 54.8743 17.4243 55.5618 17.9299 56.0688C18.4355 56.5758 19.1212 56.8606 19.8363 56.8606H42.9921C43.7071 56.8606 44.3928 56.5758 44.8984 56.0688C45.404 55.5618 45.6881 54.8743 45.6881 54.1573C45.6881 53.4404 45.404 52.7528 44.8984 52.2458C44.3928 51.7389 43.7071 51.454 42.9921 51.454ZM45.6881 39.4421C45.6881 38.7251 45.404 38.0375 44.8984 37.5306C44.3928 37.0236 43.7071 36.7388 42.9921 36.7388H19.8363C19.1212 36.7388 18.4355 37.0236 17.9299 37.5306C17.4243 38.0375 17.1403 38.7251 17.1403 39.4421C17.1403 40.159 17.4243 40.8466 17.9299 41.3536C18.4355 41.8605 19.1212 42.1453 19.8363 42.1453H42.9921C43.7071 42.1453 44.3928 41.8605 44.8984 41.3536C45.404 40.8466 45.6881 40.159 45.6881 39.4421ZM42.9921 27.4301C43.7071 27.4301 44.3928 27.1453 44.8984 26.6383C45.404 26.1314 45.6881 25.4438 45.6881 24.7268C45.6881 24.0099 45.404 23.3223 44.8984 22.8153C44.3928 22.3084 43.7071 22.0236 42.9921 22.0236H19.8363C19.1212 22.0236 18.4355 22.3084 17.9299 22.8153C17.4243 23.3223 17.1403 24.0099 17.1403 24.7268C17.1403 25.4438 17.4243 26.1314 17.9299 26.6383C18.4355 27.1453 19.1212 27.4301 19.8363 27.4301H42.9921Z" fill="#F0F1F1"/>
<path fill-rule="evenodd" clip-rule="evenodd" d="M94.4095 32.6221L109.085 76.1153C109.198 76.4517 109.377 76.7623 109.61 77.0294C109.843 77.2966 110.127 77.515 110.444 77.6723C110.762 77.8296 111.107 77.9227 111.46 77.9463C111.814 77.9698 112.168 77.9233 112.504 77.8094C112.839 77.6956 113.149 77.5166 113.415 77.2827C113.682 77.0489 113.9 76.7647 114.056 76.4464C114.213 76.128 114.306 75.7819 114.33 75.4276C114.353 75.0733 114.307 74.7178 114.193 74.3815L99.5178 30.8907C99.4044 30.5544 99.2261 30.2437 98.993 29.9765C98.7599 29.7093 98.4765 29.4908 98.1592 29.3333C97.8418 29.1759 97.4967 29.0827 97.1434 29.059C96.7901 29.0354 96.4357 29.0817 96.1003 29.1954C95.7648 29.3091 95.455 29.4879 95.1885 29.7216C94.9221 29.9554 94.7041 30.2395 94.5471 30.5577C94.3901 30.8759 94.2971 31.222 94.2735 31.5762C94.2499 31.9304 94.2961 32.2858 94.4095 32.6221ZM63.6985 26.4492H142.945C143.614 26.4507 144.254 26.7176 144.727 27.1915C145.199 27.6654 145.466 28.3076 145.467 28.9778V79.3363C145.466 80.0066 145.2 80.6492 144.727 81.1232C144.255 81.5972 143.614 81.8639 142.945 81.8648H63.6985C63.0299 81.8637 62.389 81.597 61.9161 81.1231C61.4432 80.6491 61.1769 80.0067 61.1754 79.3363V28.9778C61.1769 28.3074 61.4432 27.6649 61.9161 27.191C62.389 26.7171 63.0299 26.4504 63.6985 26.4492ZM117.941 69.3545C117.435 69.8614 117.151 70.5492 117.151 71.2663C117.151 71.9835 117.435 72.6713 117.94 73.1786C118.446 73.6858 119.132 73.9709 119.847 73.9711C120.562 73.9713 121.248 73.6866 121.754 73.1796L138.82 56.0682C139.07 55.8172 139.269 55.5192 139.405 55.1911C139.54 54.8631 139.61 54.5115 139.61 54.1564C139.61 53.8013 139.54 53.4497 139.405 53.1216C139.269 52.7936 139.07 52.4955 138.82 52.2445L121.756 35.1345C121.25 34.6274 120.564 34.3425 119.849 34.3425C119.134 34.3425 118.448 34.6274 117.942 35.1345C117.436 35.6415 117.152 36.3293 117.152 37.0464C117.152 37.7635 117.436 38.4512 117.942 38.9583L133.101 54.156L117.943 69.3545H117.941ZM92.2075 73.1796C92.7129 72.6727 92.9967 71.9853 92.9967 71.2686C92.9967 70.5518 92.7129 69.8644 92.2075 69.3575L77.0499 54.1564L92.2092 38.9562C92.6966 38.4457 92.9652 37.7641 92.9575 37.0574C92.9497 36.3508 92.6664 35.6752 92.168 35.1755C91.6696 34.6758 90.9959 34.3916 90.2911 34.3839C89.5863 34.3762 88.9066 34.6455 88.3974 35.1341L71.335 52.2441C70.8297 52.7511 70.5458 53.4384 70.5458 54.1552C70.5458 54.8719 70.8297 55.5593 71.335 56.0662L88.3957 73.1776C88.9013 73.6845 89.587 73.9692 90.302 73.9692C91.0169 73.9692 91.7026 73.6845 92.2082 73.1776L92.2075 73.1796Z" fill="#F1F1F2"/>
<path fill-rule="evenodd" clip-rule="evenodd" d="M5.39305 108.312H162.608V120.003C162.607 121.304 162.091 122.551 161.174 123.47C160.256 124.39 159.013 124.907 157.716 124.908H10.285C8.98799 124.907 7.74454 124.39 6.82742 123.47C5.91032 122.551 5.39447 121.304 5.39305 120.003V108.312ZM68.7363 118.24C69.4514 118.24 70.1371 117.955 70.6427 117.448C71.1483 116.941 71.4323 116.254 71.4323 115.537C71.4323 114.82 71.1483 114.132 70.6427 113.625C70.1371 113.118 69.4514 112.834 68.7363 112.834H59.2588C58.5438 112.834 57.858 113.118 57.3524 113.625C56.8468 114.132 56.5628 114.82 56.5628 115.537C56.5628 116.254 56.8468 116.941 57.3524 117.448C57.858 117.955 58.5438 118.24 59.2588 118.24H68.7363ZM46.8841 118.24C47.5991 118.24 48.2849 117.955 48.7905 117.448C49.2961 116.941 49.5801 116.254 49.5801 115.537C49.5801 114.82 49.2961 114.132 48.7905 113.625C48.2849 113.118 47.5991 112.834 46.8841 112.834H37.4066C36.6916 112.834 36.0058 113.118 35.5002 113.625C34.9946 114.132 34.7106 114.82 34.7106 115.537C34.7106 116.254 34.9946 116.941 35.5002 117.448C36.0058 117.955 36.6916 118.24 37.4066 118.24H46.8841ZM26.5241 118.24C27.2391 118.24 27.9249 117.955 28.4305 117.448C28.9361 116.941 29.2201 116.254 29.2201 115.537C29.2201 114.82 28.9361 114.132 28.4305 113.625C27.9249 113.118 27.2391 112.834 26.5241 112.834H17.0466C16.3316 112.834 15.6458 113.118 15.1402 113.625C14.6346 114.132 14.3506 114.82 14.3506 115.537C14.3506 116.254 14.6346 116.941 15.1402 117.448C15.6458 117.955 16.3316 118.24 17.0466 118.24H26.5241Z" fill="#5B6C69"/>
<path fill-rule="evenodd" clip-rule="evenodd" d="M64.9019 151.162H114.239C115.624 151.164 116.951 151.717 117.931 152.698C118.91 153.68 119.461 155.011 119.463 156.4V167.594H46.3125V156.401C46.3143 155.012 46.8652 153.681 47.8445 152.699C48.8237 151.718 50.1513 151.165 51.5361 151.163H64.9016L64.9019 151.162Z" fill="#5B6C69"/>
<path fill-rule="evenodd" clip-rule="evenodd" d="M98.1761 145.756H67.5976V130.314H98.1761V145.756Z" fill="#5B6C69"/>
</g>
<defs>
<clipPath id="clip0_13_54">
<rect width="168" height="173" fill="white" transform="matrix(-1 0 0 1 168 0)"/>
</clipPath>
</defs>
</svg>
