<svg width="59" height="59" viewBox="0 0 59 59" fill="none" xmlns="http://www.w3.org/2000/svg">
<g clip-path="url(#clip0_5_41)">
<path fill-rule="evenodd" clip-rule="evenodd" d="M29.4982 0C13.2086 0 0 13.5412 0 30.2489C0 43.6106 8.45174 54.9476 20.1761 58.9478C21.6511 59.2257 22.1895 58.2918 22.1895 57.4902C22.1895 56.7719 22.1637 54.8701 22.149 52.3464C13.9424 54.1744 12.2112 48.2914 12.2112 48.2914C10.8708 44.7979 8.93667 43.8677 8.93667 43.8677C6.2577 41.9905 9.13945 42.0283 9.13945 42.0283C12.0987 42.2419 13.6567 45.1457 13.6567 45.1457C16.2895 49.7678 20.5615 48.4332 22.243 47.6581C22.5104 45.7034 23.2736 44.3706 24.1162 43.6144C17.5654 42.8507 10.679 40.257 10.679 28.6667C10.679 25.3641 11.8277 22.6645 13.7157 20.5491C13.4114 19.7835 12.3992 16.7096 14.0033 12.545C14.0033 12.545 16.4813 11.7321 22.1158 15.6453C24.4702 14.9742 26.9925 14.6396 29.5018 14.6263C32.0075 14.6396 34.5316 14.9742 36.8879 15.6453C42.5187 11.7321 44.9912 12.545 44.9912 12.545C46.6008 16.7096 45.5886 19.7835 45.2843 20.5491C47.176 22.6645 48.3173 25.3641 48.3173 28.6667C48.3173 40.2854 41.4198 42.8431 34.8487 43.5917C35.907 44.5256 36.851 46.3707 36.851 49.1931C36.851 53.2368 36.8142 56.4977 36.8142 57.4902C36.8142 58.2993 37.3451 59.2408 38.8423 58.944C50.5556 54.9363 59 43.6068 59 30.2489C59 13.5412 45.7914 0 29.4982 0Z" fill="#007BBC"/>
</g>
<defs>
<clipPath id="clip0_5_41">
<rect width="59" height="59" fill="white"/>
</clipPath>
</defs>
</svg>
