<svg width="59" height="59" viewBox="0 0 59 59" fill="none" xmlns="http://www.w3.org/2000/svg">
<g clip-path="url(#clip0_5_27)">
<path d="M29.4974 58.4808C13.4971 58.4808 0.480164 45.4639 0.480164 29.464C0.480164 13.4639 13.4971 0.447052 29.4974 0.447052C45.4974 0.447052 58.5143 13.4639 58.5143 29.464C58.5143 45.4639 45.4974 58.4808 29.4974 58.4808Z" fill="#007BBC"/>
<path d="M45.9019 31.6733V42.5079C45.9019 42.7756 45.6848 42.9927 45.4171 42.9927H39.8238C39.5562 42.9927 39.3391 42.7756 39.3391 42.5079V32.4319C39.3391 29.7802 38.3916 27.9693 36.0154 27.9693C34.2022 27.9693 33.1249 29.1884 32.6492 30.3689C32.4765 30.7908 32.432 31.3767 32.432 31.9684V42.5075C32.432 42.7751 32.2149 42.9922 31.9472 42.9922H26.3557C26.0872 42.9922 25.8697 42.776 25.871 42.5074C25.8835 39.8242 25.94 26.8048 25.8826 23.7447C25.8775 23.4736 26.096 23.2542 26.3672 23.2542H31.9477C32.2154 23.2542 32.4324 23.4712 32.4324 23.7388V26.0512C32.4192 26.0733 32.4006 26.0948 32.3888 26.1159H32.4324V26.0512C33.3045 24.7093 34.8599 22.7907 38.3471 22.7907C42.6648 22.7907 45.9019 25.6117 45.9019 31.6733ZM16.1641 42.9927H21.7555C22.0231 42.9927 22.2402 42.7756 22.2402 42.5079V23.7388C22.2402 23.4712 22.0231 23.2541 21.7555 23.2541H16.1641C15.8964 23.2541 15.6794 23.4712 15.6794 23.7388V42.5079C15.6794 42.7756 15.8964 42.9927 16.1641 42.9927Z" fill="white"/>
<path d="M18.7634 20.7434C20.7035 20.7434 22.2763 19.1707 22.2763 17.2306C22.2763 15.2905 20.7035 13.7177 18.7634 13.7177C16.8233 13.7177 15.2505 15.2905 15.2505 17.2306C15.2505 19.1707 16.8233 20.7434 18.7634 20.7434Z" fill="white"/>
</g>
<defs>
<clipPath id="clip0_5_27">
<rect width="59" height="59" fill="white"/>
</clipPath>
</defs>
</svg>
