<svg width="145" height="131" viewBox="0 0 145 131" fill="none" xmlns="http://www.w3.org/2000/svg">
<g filter="url(#filter0_d_7_111)">
<g filter="url(#filter1_d_7_111)">
<rect x="5" y="31" width="66" height="69" fill="#FDF0E7"/>
</g>
<path d="M57.2609 57.4C55.8609 55.9667 54.4776 54.7333 53.1109 53.7V53.25C53.4109 52.8167 53.8609 52.2667 54.4609 51.6C55.0276 50.9 55.6109 50.25 56.2109 49.65C56.7776 49.0167 57.1943 48.6167 57.4609 48.45H57.9109C59.4443 49.4167 60.4776 50.2333 61.0109 50.9C61.5443 51.5333 61.8109 52.1333 61.8109 52.7C61.8109 53.9 60.4276 55.4667 57.6609 57.4H57.2609ZM28.1 95.85C25.9667 95.85 23.9667 95.75 22.1 95.55C20.2667 95.35 18.65 94.9667 17.25 94.4C15.8833 93.8 14.8167 92.9167 14.05 91.75C13.2833 90.55 12.9 88.9667 12.9 87C12.9 84.9667 13.3167 82.5333 14.15 79.7L15.65 79.95C15.6167 80.1833 15.6 80.4333 15.6 80.7C15.6 80.9667 15.6 81.25 15.6 81.55C15.6 83.3167 16.1 84.65 17.1 85.55C18.1 86.45 19.6667 87.0333 21.8 87.3C22.8667 87.4333 24.2333 87.5333 25.9 87.6C27.6 87.6333 29.6 87.65 31.9 87.65C34.0333 87.65 36.3 87.55 38.7 87.35C41.1 87.15 43.5167 86.85 45.95 86.45C48.4167 86.0167 50.7667 85.4833 53 84.85C55.2333 84.1833 57.25 83.4167 59.05 82.55C60.8833 81.65 62.35 80.6333 63.45 79.5C64.1833 78.7 64.55 77.8333 64.55 76.9C64.55 76.2333 64.4 75.75 64.1 75.45C63.1333 76.0833 62.1 76.4 61 76.4C59.9333 76.4 58.9333 76.05 58 75.35C57.1 74.65 56.65 73.7333 56.65 72.6C56.65 71.5333 56.9833 70.3 57.65 68.9L59.25 65.6C60.05 64.0333 61.1833 63.25 62.65 63.25C63.8167 63.25 64.8 63.6667 65.6 64.5C66.4 65.3 67 66.3333 67.4 67.6C67.8 68.8667 68 70.2 68 71.6C68 75.3333 67.0833 78.8333 65.25 82.1C63.4167 85.3667 60.7333 87.9667 57.2 89.9C55.3333 90.9333 53.2 91.8333 50.8 92.6C48.4333 93.3333 45.95 93.95 43.35 94.45C40.75 94.9167 38.15 95.2667 35.55 95.5C32.95 95.7333 30.4667 95.85 28.1 95.85ZM62.1398 116.9L60.9398 115.55C64.2065 112.683 67.2065 109.35 69.9398 105.55C72.6732 101.75 75.4232 97.5833 78.1898 93.05C78.8565 91.9833 79.5398 90.95 80.2398 89.95C80.9398 88.95 81.6232 88.0167 82.2898 87.15C83.8898 85.0833 85.3565 83.5167 86.6898 82.45C88.0565 81.3833 89.3398 80.6667 90.5398 80.3C91.7732 79.9333 92.9898 79.75 94.1898 79.75C94.6565 79.75 95.0898 79.8667 95.4898 80.1C95.9232 80.3 96.1398 80.6833 96.1398 81.25C96.1398 82.3167 95.8398 83.35 95.2398 84.35C94.6732 85.3167 93.9232 86.1167 92.9898 86.75C92.0565 87.35 91.0398 87.65 89.9398 87.65C88.3065 87.65 86.8732 88.0833 85.6398 88.95C84.4398 89.7833 83.2398 91.0167 82.0398 92.65C80.8398 94.25 79.4398 96.2 77.8398 98.5C75.3732 102.067 72.9065 105.417 70.4398 108.55C67.9732 111.683 65.2065 114.467 62.1398 116.9ZM99.932 55.1C99.6654 54.8 99.2487 54.3833 98.682 53.85C98.082 53.3167 97.532 52.8333 97.032 52.4C96.4987 51.9333 96.1654 51.65 96.032 51.55V51.15C96.532 50.45 97.082 49.7833 97.682 49.15C98.2487 48.5167 98.782 47.9833 99.282 47.55C99.782 47.0833 100.099 46.8167 100.232 46.75H100.582C101.915 47.6833 102.865 48.4333 103.432 49C103.999 49.5333 104.282 50.05 104.282 50.55C104.282 51.45 102.982 52.9667 100.382 55.1H99.932ZM96.482 63.8C95.7487 63.0667 95.0487 62.4 94.382 61.8C93.682 61.2 92.9987 60.6333 92.332 60.1V59.65C92.6654 59.1833 93.132 58.6167 93.732 57.95C94.2987 57.25 94.8654 56.6 95.432 56C95.9987 55.4 96.4154 55.0167 96.682 54.85H97.132C97.9987 55.3833 98.7154 55.8833 99.282 56.35C99.8154 56.7833 100.232 57.2167 100.532 57.65C101.099 56.95 101.749 56.2167 102.482 55.45C103.215 54.65 103.749 54.15 104.082 53.95H104.482C105.815 54.7833 106.799 55.5333 107.432 56.2C108.099 56.8333 108.432 57.4833 108.432 58.15C108.432 59.4167 107.099 61 104.432 62.9H103.982C103.415 62.3333 102.865 61.8167 102.332 61.35C101.799 60.85 101.299 60.4 100.832 60C100.299 61.0667 98.9987 62.3333 96.932 63.8H96.482ZM89.9316 88C88.8316 88 88.2816 87.4667 88.2816 86.4C88.2816 85.4333 88.5316 84.4833 89.0316 83.55C89.4983 82.5833 90.1816 81.7833 91.0816 81.15C91.9816 80.4833 93.015 80.1333 94.1816 80.1C95.0816 80.0667 95.815 79.95 96.3816 79.75C96.9816 79.55 97.565 79.15 98.1316 78.55C98.7316 77.9167 99.4316 77 100.232 75.8C100.798 74.9333 101.482 74.5 102.282 74.5C102.782 74.5 103.298 74.5667 103.832 74.7C104.365 74.8333 104.848 74.9 105.282 74.9C106.782 74.9 107.865 73.6667 108.532 71.2L109.932 71.45C109.532 73.7167 108.948 75.5 108.182 76.8C107.448 78.0667 106.648 78.95 105.782 79.45C104.915 79.95 104.098 80.2 103.332 80.2C102.998 80.2 102.548 80.1167 101.982 79.95C101.415 79.75 100.948 79.65 100.582 79.65C100.382 79.65 100.198 79.7167 100.032 79.85C99.8983 79.95 99.6483 80.2833 99.2816 80.85C98.4483 82.0833 97.715 83.1 97.0816 83.9C96.4816 84.6667 95.965 85.25 95.5316 85.65C94.4983 86.6167 93.5483 87.25 92.6816 87.55C91.8483 87.85 90.9316 88 89.9316 88ZM118.879 49.6C117.712 49.6 117.129 49.05 117.129 47.95C117.129 47.2833 117.279 46.6333 117.579 46C117.879 45.3667 118.246 44.8333 118.679 44.4L119.529 44.6C119.529 45 119.629 45.3167 119.829 45.55C120.029 45.75 120.246 45.85 120.479 45.85C120.812 45.85 121.129 45.7333 121.429 45.5C121.729 45.2333 122.096 44.7833 122.529 44.15L124.229 41.6C124.929 40.5667 125.546 39.85 126.079 39.45C126.612 39.0167 127.179 38.8 127.779 38.8C128.179 38.8 128.562 38.9167 128.929 39.15C129.296 39.35 129.479 39.7833 129.479 40.45C129.479 41.0833 129.329 41.7167 129.029 42.35C128.729 42.9833 128.362 43.5333 127.929 44L127.129 43.8C127.129 43.3333 127.012 43 126.779 42.8C126.579 42.6 126.362 42.5 126.129 42.5C125.796 42.5 125.479 42.6167 125.179 42.85C124.912 43.0833 124.562 43.5167 124.129 44.15L122.429 46.75C121.196 48.65 120.012 49.6 118.879 49.6ZM118.982 89.95L117.882 89.7C118.049 88.9333 118.215 87.7167 118.382 86.05C118.549 84.3833 118.682 82.35 118.782 79.95L119.232 68C119.299 66.5 119.365 65.1833 119.432 64.05C119.532 62.9167 119.715 61.8 119.982 60.7C120.249 59.5667 120.649 58.2833 121.182 56.85C121.749 55.4167 122.499 53.65 123.432 51.55L124.482 51.95C124.215 52.6167 123.982 53.8 123.782 55.5C123.615 57.1667 123.449 59.35 123.282 62.05L122.432 76.15C122.299 78.2833 121.949 80.5 121.382 82.8C120.849 85.1 120.049 87.4833 118.982 89.95Z" fill="black"/>
</g>
<defs>
<filter id="filter0_d_7_111" x="1" y="31" width="132.479" height="93.9" filterUnits="userSpaceOnUse" color-interpolation-filters="sRGB">
<feFlood flood-opacity="0" result="BackgroundImageFix"/>
<feColorMatrix in="SourceAlpha" type="matrix" values="0 0 0 0 0 0 0 0 0 0 0 0 0 0 0 0 0 0 127 0" result="hardAlpha"/>
<feOffset dy="4"/>
<feGaussianBlur stdDeviation="2"/>
<feComposite in2="hardAlpha" operator="out"/>
<feColorMatrix type="matrix" values="0 0 0 0 0 0 0 0 0 0 0 0 0 0 0 0 0 0 0.25 0"/>
<feBlend mode="normal" in2="BackgroundImageFix" result="effect1_dropShadow_7_111"/>
<feBlend mode="normal" in="SourceGraphic" in2="effect1_dropShadow_7_111" result="shape"/>
</filter>
<filter id="filter1_d_7_111" x="0" y="31" width="71" height="74" filterUnits="userSpaceOnUse" color-interpolation-filters="sRGB">
<feFlood flood-opacity="0" result="BackgroundImageFix"/>
<feColorMatrix in="SourceAlpha" type="matrix" values="0 0 0 0 0 0 0 0 0 0 0 0 0 0 0 0 0 0 127 0" result="hardAlpha"/>
<feOffset dx="-4" dy="4"/>
<feGaussianBlur stdDeviation="0.5"/>
<feComposite in2="hardAlpha" operator="out"/>
<feColorMatrix type="matrix" values="0 0 0 0 0.0616667 0 0 0 0 0.0614097 0 0 0 0 0.0614097 0 0 0 1 0"/>
<feBlend mode="normal" in2="BackgroundImageFix" result="effect1_dropShadow_7_111"/>
<feBlend mode="normal" in="SourceGraphic" in2="effect1_dropShadow_7_111" result="shape"/>
</filter>
</defs>
</svg>
