<svg width="467" height="187" viewBox="0 0 467 187" fill="none" xmlns="http://www.w3.org/2000/svg">
<circle cx="353.5" cy="93.5" r="93.5" fill="#27C7D4"/>
<path d="M15.202 120.95L14.952 120.6C15.3186 120.267 15.8353 119.833 16.502 119.3C17.1353 118.733 17.8186 118.15 18.552 117.55C19.252 116.95 19.8853 116.433 20.452 116C21.0186 115.533 21.402 115.233 21.602 115.1C21.2353 114.667 20.9853 114.25 20.852 113.85C20.7186 113.417 20.652 113.083 20.652 112.85C20.652 112.25 20.8353 111.65 21.202 111.05C21.5686 110.45 22.0353 109.95 22.602 109.55C23.1686 109.117 23.7353 108.9 24.302 108.9C25.5686 108.9 26.202 109.633 26.202 111.1C26.202 112.4 25.7186 113.6 24.752 114.7C23.7853 115.8 22.4686 116.867 20.802 117.9C19.1686 118.9 17.302 119.917 15.202 120.95ZM23.402 113.7C23.6686 113.433 23.9186 113.15 24.152 112.85C24.3853 112.55 24.502 112.2 24.502 111.8C24.502 111.433 24.3853 111.183 24.152 111.05C23.952 110.883 23.7186 110.8 23.452 110.8C23.0186 110.8 22.6853 110.933 22.452 111.2C22.252 111.433 22.152 111.683 22.152 111.95C22.152 112.15 22.202 112.35 22.302 112.55C22.4353 112.75 22.802 113.133 23.402 113.7ZM19.673 144.6C18.973 143.867 18.273 143.2 17.573 142.6C16.873 141.967 16.1897 141.383 15.523 140.85V140.4C15.823 139.967 16.273 139.417 16.873 138.75C17.4397 138.05 18.023 137.4 18.623 136.8C19.1897 136.167 19.6064 135.767 19.873 135.6H20.323C21.8564 136.567 22.8897 137.383 23.423 138.05C23.9564 138.683 24.223 139.283 24.223 139.85C24.223 141.05 22.8397 142.633 20.073 144.6H19.673ZM14 168.05C11.4333 168.05 9.2 167.517 7.3 166.45C5.43333 165.383 3.98333 163.883 2.95 161.95C1.91667 160.017 1.4 157.767 1.4 155.2C1.4 152.1 1.75 149 2.45 145.9C3.15 142.767 4.38333 139.333 6.15 135.6L7.55 136.15C5.68333 140.75 4.75 144.65 4.75 147.85C4.75 150.05 5.08333 151.883 5.75 153.35C6.41667 154.817 7.3 155.967 8.4 156.8C9.53333 157.633 10.8 158.217 12.2 158.55C13.6 158.917 15.0167 159.1 16.45 159.1C19.55 159.1 22.2 158.567 24.4 157.5C26.6 156.467 28.4 155.133 29.8 153.5C31.2 151.867 32.2167 150.183 32.85 148.45C33.6167 146.417 34 143.533 34 139.8C34 139.233 33.9833 138.667 33.95 138.1C33.95 137.533 33.95 136.967 33.95 136.4C33.95 134.9 34.05 133.467 34.25 132.1C34.45 130.7 34.7833 129.25 35.25 127.75C35.7167 126.217 36.3333 124.483 37.1 122.55L38.15 122.85C37.9833 123.75 37.8667 126 37.8 129.6C37.7667 133.367 37.55 136.75 37.15 139.75C36.75 142.717 36.2 145.3 35.5 147.5C33.9667 152.367 32.0667 156.3 29.8 159.3C27.5333 162.333 25.05 164.55 22.35 165.95C19.6833 167.35 16.9 168.05 14 168.05ZM56.2664 151C53.7997 151 51.9831 150.067 50.8164 148.2C49.6831 146.3 49.1164 143.517 49.1164 139.85C49.1164 137.083 49.1664 134.383 49.2664 131.75C49.3997 129.117 49.5497 126.7 49.7164 124.5C49.8831 122.267 50.0664 120.35 50.2664 118.75C50.4664 117.117 50.6497 115.933 50.8164 115.2C51.2164 113.533 51.8164 111.717 52.6164 109.75L53.6664 110.05C53.2997 112.317 53.0164 115.217 52.8164 118.75C52.6164 122.283 52.5164 126.433 52.5164 131.2C52.5164 132.467 52.5497 133.8 52.6164 135.2C52.7164 136.567 52.9497 137.85 53.3164 139.05C53.7164 140.25 54.3331 141.233 55.1664 142C56.0331 142.733 57.2164 143.1 58.7164 143.1C60.1497 143.1 60.8664 144.05 60.8664 145.95C60.8664 147.217 60.6164 148.217 60.1164 148.95C59.6164 149.683 58.9997 150.217 58.2664 150.55C57.5664 150.85 56.8997 151 56.2664 151ZM60.175 124.75L59.825 124.5C59.9583 123.767 60.2917 123.117 60.825 122.55C61.3583 121.95 61.9417 121.45 62.575 121.05C63.2083 120.65 63.725 120.333 64.125 120.1L70.975 116.25C71.2417 116.083 71.4583 115.95 71.625 115.85C71.825 115.75 71.975 115.667 72.075 115.6L72.525 115.85C72.2583 116.55 71.925 117.167 71.525 117.7C71.125 118.233 70.5417 118.717 69.775 119.15L62.825 122.95C62.025 123.383 61.4417 123.733 61.075 124C60.675 124.267 60.375 124.517 60.175 124.75ZM56.2012 151C54.7678 151 54.0512 150.05 54.0512 148.15C54.0512 146.917 54.3012 145.933 54.8012 145.2C55.3012 144.467 55.9012 143.933 56.6012 143.6C57.3345 143.267 58.0178 143.1 58.6512 143.1C60.6178 143.1 62.4012 142.717 64.0012 141.95C63.4012 140.783 62.7845 139.917 62.1512 139.35C61.5512 138.783 60.8012 138.5 59.9012 138.5H59.1512L58.9012 138.05C59.6345 136.45 60.7178 135.267 62.1512 134.5C63.5845 133.733 65.0845 133.35 66.6512 133.35C67.5845 133.35 68.4678 133.483 69.3012 133.75C70.1678 134.017 70.8678 134.433 71.4012 135C71.9678 135.533 72.2512 136.233 72.2512 137.1C72.2512 137.9 72.0345 138.65 71.6012 139.35C71.1678 140.05 70.4678 140.85 69.5012 141.75C69.7678 141.883 70.1845 141.95 70.7512 141.95C71.1178 141.95 71.4012 142.1 71.6012 142.4C71.8012 142.7 71.9012 143.067 71.9012 143.5C71.9012 144.533 71.6678 145.25 71.2012 145.65C70.7678 146.017 70.1178 146.2 69.2512 146.2C68.1512 146.2 67.1845 145.917 66.3512 145.35C64.6845 146.883 63.2678 148.067 62.1012 148.9C60.9345 149.7 59.8845 150.25 58.9512 150.55C58.0512 150.85 57.1345 151 56.2012 151ZM74.8723 114.75L74.5223 114.5C74.6556 113.767 74.9889 113.117 75.5223 112.55C76.0556 111.95 76.6389 111.45 77.2723 111.05C77.9056 110.65 78.4223 110.333 78.8223 110.1L85.6723 106.25C85.9389 106.083 86.1556 105.95 86.3223 105.85C86.5223 105.75 86.6723 105.667 86.7723 105.6L87.2223 105.85C86.9556 106.55 86.6223 107.167 86.2223 107.7C85.8223 108.233 85.2389 108.717 84.4723 109.15L77.5223 112.95C76.7223 113.383 76.1389 113.733 75.7723 114C75.3723 114.267 75.0723 114.517 74.8723 114.75ZM76.4723 124.8C75.7389 124.067 75.0389 123.4 74.3723 122.8C73.6723 122.2 72.9889 121.633 72.3223 121.1V120.65C72.6556 120.183 73.1223 119.617 73.7223 118.95C74.2889 118.25 74.8556 117.6 75.4223 117C75.9889 116.4 76.4056 116.017 76.6723 115.85H77.1223C77.9223 116.35 78.6223 116.833 79.2223 117.3C79.7889 117.733 80.2223 118.183 80.5223 118.65C80.8889 118.183 81.3056 117.7 81.7723 117.2C82.2389 116.667 82.6889 116.2 83.1223 115.8C83.5556 115.367 83.8723 115.083 84.0723 114.95H84.4723C85.8056 115.783 86.7889 116.533 87.4223 117.2C88.0889 117.833 88.4223 118.483 88.4223 119.15C88.4223 120.417 87.0889 122 84.4223 123.9H83.9723C83.4056 123.333 82.8556 122.817 82.3223 122.35C81.7889 121.85 81.2889 121.4 80.8223 121C80.2889 122.067 78.9889 123.333 76.9223 124.8H76.4723ZM69.2383 146C69.0049 146 68.7549 145.883 68.4883 145.65C68.1883 145.383 68.0383 144.983 68.0383 144.45C68.0383 143.517 68.3549 142.85 68.9883 142.45C69.5883 142.017 70.1049 141.783 70.5383 141.75C71.5383 141.717 72.4716 141.483 73.3383 141.05C74.2049 140.617 74.9716 140.1 75.6383 139.5C76.3383 138.9 76.9049 138.333 77.3383 137.8C77.6716 137.4 78.0716 136.883 78.5383 136.25C79.0049 135.583 79.4383 134.967 79.8383 134.4C80.2716 133.833 80.6049 133.483 80.8383 133.35C81.2383 133.15 81.6549 133.05 82.0883 133.05C82.7883 133.05 83.4216 133.217 83.9883 133.55C84.5883 133.883 85.2549 134.05 85.9883 134.05C86.4549 134.05 86.8216 134.25 87.0883 134.65C87.3549 135.017 87.4883 135.467 87.4883 136C87.4883 137 87.1716 137.817 86.5383 138.45C85.9049 139.05 85.1716 139.35 84.3383 139.35C83.6383 139.35 83.0549 139.25 82.5883 139.05C82.1216 138.85 81.7216 138.667 81.3883 138.5C81.0883 138.3 80.7716 138.2 80.4383 138.2C80.1383 138.2 79.6549 138.6 78.9883 139.4C77.2549 141.5 75.6549 143.133 74.1883 144.3C72.7216 145.433 71.0716 146 69.2383 146ZM95.6496 113.05L95.1496 112.95C95.1829 112.25 95.3829 111.517 95.7496 110.75C96.1163 109.983 96.7496 109.1 97.6496 108.1C98.5496 107.067 99.8163 105.833 101.45 104.4L102.05 104.3C103.216 105.033 104.283 105.783 105.25 106.55C106.083 107.217 106.733 107.8 107.2 108.3C107.7 108.767 108.066 109.267 108.3 109.8C108.533 110.333 108.7 111 108.8 111.8L108.35 112C106.25 110.433 104.083 108.95 101.85 107.55L100.2 108.9C99.2663 109.633 98.4163 110.35 97.6496 111.05C96.8829 111.75 96.2163 112.417 95.6496 113.05ZM84.3262 140C83.9928 140 83.6762 139.833 83.3762 139.5C83.0428 139.133 82.8762 138.65 82.8762 138.05C82.8762 137.017 83.2095 136.2 83.8762 135.6C84.5095 135 85.2095 134.7 85.9762 134.7C86.9428 134.7 88.0095 134.45 89.1762 133.95C90.3428 133.417 91.4928 132.483 92.6262 131.15C92.8262 130.917 92.9762 130.733 93.0762 130.6C93.2095 130.433 93.3928 130.167 93.6262 129.8C93.8928 129.433 94.2928 128.833 94.8262 128C95.3595 127.167 96.0428 126.75 96.8762 126.75C97.2095 126.75 97.5262 126.8 97.8262 126.9C98.1595 127 98.4928 127.133 98.8262 127.3C99.1595 127.433 99.4928 127.55 99.8262 127.65C100.193 127.75 100.56 127.8 100.926 127.8C102.893 127.8 104.31 126.683 105.176 124.45L106.076 124.4C106.71 125.267 107.593 125.7 108.726 125.7C110.226 125.7 111.193 124.733 111.626 122.8L112.676 122.75C112.71 122.817 112.743 122.9 112.776 123C112.81 123.1 112.826 123.2 112.826 123.3C113.26 123.667 113.81 123.85 114.476 123.85C114.943 123.85 115.293 124.05 115.526 124.45C115.793 124.85 115.926 125.3 115.926 125.8C115.926 126.933 115.576 127.783 114.876 128.35C114.176 128.917 113.476 129.2 112.776 129.2C112.143 129.2 111.56 128.983 111.026 128.55C110.56 129.283 109.993 129.883 109.326 130.35C108.66 130.783 107.91 131 107.076 131C106.11 131 105.21 130.633 104.376 129.9C102.81 132.033 101.11 133.1 99.2762 133.1C98.3428 133.1 97.5262 132.9 96.8262 132.5C96.0928 132.1 95.5928 131.9 95.3262 131.9C94.9928 131.9 94.4928 132.35 93.8262 133.25C92.2262 135.517 90.9595 137.033 90.0262 137.8C89.0595 138.633 88.1262 139.217 87.2262 139.55C86.3595 139.85 85.3928 140 84.3262 140ZM112.712 107.95L112.462 107.6C112.828 107.267 113.345 106.833 114.012 106.3C114.645 105.733 115.328 105.15 116.062 104.55C116.762 103.95 117.395 103.433 117.962 103C118.528 102.533 118.912 102.233 119.112 102.1C118.745 101.667 118.495 101.25 118.362 100.85C118.228 100.417 118.162 100.083 118.162 99.85C118.162 99.25 118.345 98.65 118.712 98.05C119.078 97.45 119.545 96.95 120.112 96.55C120.678 96.1167 121.245 95.9 121.812 95.9C123.078 95.9 123.712 96.6333 123.712 98.1C123.712 99.4 123.228 100.6 122.262 101.7C121.295 102.8 119.978 103.867 118.312 104.9C116.678 105.9 114.812 106.917 112.712 107.95ZM120.912 100.7C121.178 100.433 121.428 100.15 121.662 99.85C121.895 99.55 122.012 99.2 122.012 98.8C122.012 98.4333 121.895 98.1833 121.662 98.05C121.462 97.8833 121.228 97.8 120.962 97.8C120.528 97.8 120.195 97.9333 119.962 98.2C119.762 98.4333 119.662 98.6833 119.662 98.95C119.662 99.15 119.712 99.35 119.812 99.55C119.945 99.75 120.312 100.133 120.912 100.7ZM112.793 129C112.46 129 112.143 128.833 111.843 128.5C111.51 128.133 111.343 127.65 111.343 127.05C111.343 126.017 111.676 125.2 112.343 124.6C112.976 124 113.676 123.7 114.443 123.7C115.71 123.7 117.176 123.333 118.843 122.6C120.543 121.867 122.11 120.533 123.543 118.6C124.576 117.2 125.426 116.117 126.093 115.35C126.76 114.583 127.36 114.05 127.893 113.75C128.46 113.45 129.076 113.3 129.743 113.3C130.61 113.3 131.426 113.433 132.193 113.7C132.993 113.933 133.66 114.233 134.193 114.6C134.726 114.933 135.01 115.267 135.043 115.6C135.01 116.2 134.793 116.95 134.393 117.85C133.993 118.75 133.476 119.567 132.843 120.3C132.21 121 131.51 121.35 130.743 121.35C130.376 121.35 129.793 121.133 128.993 120.7C128.56 120.433 128.126 120.233 127.693 120.1C127.26 119.967 126.81 119.9 126.343 119.9C125.976 119.9 125.593 120 125.193 120.2C124.826 120.4 124.31 120.8 123.643 121.4C122.976 122 122.043 122.917 120.843 124.15C119.343 125.683 118.01 126.883 116.843 127.75C115.71 128.583 114.36 129 112.793 129ZM127.29 76.05L126.79 75.95C126.824 75.25 127.024 74.5167 127.39 73.75C127.757 72.9833 128.39 72.1 129.29 71.1C130.19 70.0667 131.457 68.8333 133.09 67.4L133.69 67.3C134.857 68.0333 135.924 68.7833 136.89 69.55C137.724 70.2167 138.374 70.8 138.84 71.3C139.34 71.7667 139.707 72.2667 139.94 72.8C140.174 73.3333 140.34 74 140.44 74.8L139.99 75C137.89 73.4333 135.724 71.95 133.49 70.55L131.84 71.9C130.907 72.6333 130.057 73.35 129.29 74.05C128.524 74.75 127.857 75.4167 127.29 76.05ZM132.682 116.35C129.382 116.35 127.732 115.717 127.732 114.45C127.732 114.183 127.798 113.817 127.932 113.35C128.032 112.917 128.198 112.333 128.432 111.6C128.732 110.7 128.965 109.933 129.132 109.3C129.265 108.667 129.382 107.967 129.482 107.2C129.582 106.433 129.648 105.4 129.682 104.1L129.932 97.5C130.032 95.1 130.365 92.6833 130.932 90.25C131.498 87.7833 132.348 85.2833 133.482 82.75L134.532 83.1C134.398 83.7667 134.282 84.65 134.182 85.75C134.082 86.8167 133.998 88.1167 133.932 89.65C133.865 91.25 133.815 92.5667 133.782 93.6C133.748 94.6 133.698 95.35 133.632 95.85C133.498 97.6833 133.282 99.4333 132.982 101.1C132.715 102.767 132.365 104.433 131.932 106.1C131.665 107.233 131.448 108.167 131.282 108.9C131.115 109.633 131.032 110.183 131.032 110.55C131.032 111.317 131.382 111.9 132.082 112.3C133.215 112.933 133.982 113.45 134.382 113.85C134.782 114.25 134.982 114.733 134.982 115.3C134.982 115.567 134.782 115.8 134.382 116C134.015 116.233 133.448 116.35 132.682 116.35ZM146.091 145.95L144.991 145.7C145.158 144.933 145.325 143.717 145.491 142.05C145.658 140.383 145.791 138.35 145.891 135.95L146.341 124C146.408 122.5 146.475 121.183 146.541 120.05C146.641 118.917 146.825 117.8 147.091 116.7C147.358 115.567 147.758 114.283 148.291 112.85C148.858 111.417 149.608 109.65 150.541 107.55L151.591 107.95C151.325 108.617 151.091 109.8 150.891 111.5C150.725 113.167 150.558 115.35 150.391 118.05L149.541 132.15C149.408 134.283 149.058 136.5 148.491 138.8C147.958 141.1 147.158 143.483 146.091 145.95ZM165.886 130.95L165.636 130.6C166.002 130.267 166.519 129.833 167.186 129.3C167.819 128.733 168.502 128.15 169.236 127.55C169.936 126.95 170.569 126.433 171.136 126C171.702 125.533 172.086 125.233 172.286 125.1C171.919 124.667 171.669 124.25 171.536 123.85C171.402 123.417 171.336 123.083 171.336 122.85C171.336 122.25 171.519 121.65 171.886 121.05C172.252 120.45 172.719 119.95 173.286 119.55C173.852 119.117 174.419 118.9 174.986 118.9C176.252 118.9 176.886 119.633 176.886 121.1C176.886 122.4 176.402 123.6 175.436 124.7C174.469 125.8 173.152 126.867 171.486 127.9C169.852 128.9 167.986 129.917 165.886 130.95ZM174.086 123.7C174.352 123.433 174.602 123.15 174.836 122.85C175.069 122.55 175.186 122.2 175.186 121.8C175.186 121.433 175.069 121.183 174.836 121.05C174.636 120.883 174.402 120.8 174.136 120.8C173.702 120.8 173.369 120.933 173.136 121.2C172.936 121.433 172.836 121.683 172.836 121.95C172.836 122.15 172.886 122.35 172.986 122.55C173.119 122.75 173.486 123.133 174.086 123.7ZM184.003 112.75L183.653 112.5C183.786 111.767 184.12 111.117 184.653 110.55C185.186 109.95 185.77 109.45 186.403 109.05C187.036 108.65 187.553 108.333 187.953 108.1L194.803 104.25C195.07 104.083 195.286 103.95 195.453 103.85C195.653 103.75 195.803 103.667 195.903 103.6L196.353 103.85C196.086 104.55 195.753 105.167 195.353 105.7C194.953 106.233 194.37 106.717 193.603 107.15L186.653 110.95C185.853 111.383 185.27 111.733 184.903 112C184.503 112.267 184.203 112.517 184.003 112.75ZM185.753 119.95C184.52 119.95 183.903 119.25 183.903 117.85C183.903 117.017 184.053 116.333 184.353 115.8L185.003 115.7V115.95C185.103 116.483 185.27 116.867 185.503 117.1C185.703 117.3 185.986 117.4 186.353 117.4C187.02 117.4 187.553 117.15 187.953 116.65C188.353 116.15 188.72 115.267 189.053 114L189.853 113.85C190.153 114.45 190.686 114.75 191.453 114.75C192.086 114.75 192.536 114.483 192.803 113.95C193.07 113.383 193.27 112.55 193.403 111.45L194.303 111.3V111.85C194.303 112.65 194.186 113.467 193.953 114.3C193.72 115.133 193.32 115.85 192.753 116.45C192.186 117.017 191.403 117.3 190.403 117.3C189.903 117.3 189.486 117.167 189.153 116.9C188.286 118.933 187.153 119.95 185.753 119.95ZM165.237 145.8L164.437 144.95C165.67 143.75 167.02 142.4 168.487 140.9C169.954 139.4 171.387 137.9 172.787 136.4C174.187 134.9 175.42 133.55 176.487 132.35C177.587 131.117 178.37 130.2 178.837 129.6L179.687 129.9C179.654 130.133 179.62 130.383 179.587 130.65C179.587 130.917 179.587 131.183 179.587 131.45C179.587 132.983 179.97 134.083 180.737 134.75C181.537 135.383 182.42 135.7 183.387 135.7C186.587 135.7 188.837 133.217 190.137 128.25L191.287 128.4C191.254 128.567 191.237 128.733 191.237 128.9C191.237 129.067 191.237 129.233 191.237 129.4C191.304 132.5 192.57 134.05 195.037 134.05C196.437 134.05 197.47 133.65 198.137 132.85C198.804 132.05 199.187 131.217 199.287 130.35C199.354 129.617 199.387 128.917 199.387 128.25C199.42 127.583 199.437 126.933 199.437 126.3C199.437 123.133 200.404 119.883 202.337 116.55L203.287 116.95C203.154 117.583 203.037 118.3 202.937 119.1C202.837 119.867 202.754 120.767 202.687 121.8C202.554 123.9 202.404 125.8 202.237 127.5C202.104 129.167 201.854 130.733 201.487 132.2C201.154 133.633 200.62 135.05 199.887 136.45C199.487 137.217 198.954 138.033 198.287 138.9C197.62 139.767 196.82 140.5 195.887 141.1C194.987 141.667 193.937 141.95 192.737 141.95C190.737 141.95 189.27 141.233 188.337 139.8C188.037 140.3 187.57 140.85 186.937 141.45C186.337 142.05 185.57 142.567 184.637 143C183.737 143.433 182.654 143.65 181.387 143.65C179.887 143.65 178.67 143.383 177.737 142.85C176.804 142.317 176.104 141.65 175.637 140.85C175.17 140.05 174.854 139.25 174.687 138.45C171.087 141.483 167.937 143.933 165.237 145.8ZM209.275 145.95L208.175 145.7C208.342 144.933 208.508 143.717 208.675 142.05C208.842 140.383 208.975 138.35 209.075 135.95L209.525 124C209.592 122.5 209.658 121.183 209.725 120.05C209.825 118.917 210.008 117.8 210.275 116.7C210.542 115.567 210.942 114.283 211.475 112.85C212.042 111.417 212.792 109.65 213.725 107.55L214.775 107.95C214.508 108.617 214.275 109.8 214.075 111.5C213.908 113.167 213.742 115.35 213.575 118.05L212.725 132.15C212.592 134.283 212.242 136.5 211.675 138.8C211.142 141.1 210.342 143.483 209.275 145.95ZM224.97 124.75L224.62 124.5C224.753 123.767 225.087 123.117 225.62 122.55C226.153 121.95 226.737 121.45 227.37 121.05C228.003 120.65 228.52 120.333 228.92 120.1L235.77 116.25C236.037 116.083 236.253 115.95 236.42 115.85C236.62 115.75 236.77 115.667 236.87 115.6L237.32 115.85C237.053 116.55 236.72 117.167 236.32 117.7C235.92 118.233 235.337 118.717 234.57 119.15L227.62 122.95C226.82 123.383 226.237 123.733 225.87 124C225.47 124.267 225.17 124.517 224.97 124.75ZM220.829 154.4L220.629 153.3C223.129 151.8 225.412 150.25 227.479 148.65C229.546 147.017 231.179 145.517 232.379 144.15C233.612 142.783 234.229 141.717 234.229 140.95C234.229 140.717 234.196 140.583 234.129 140.55C233.029 141.317 231.912 141.7 230.779 141.7C229.612 141.7 228.596 141.333 227.729 140.6C226.862 139.833 226.429 138.933 226.429 137.9C226.429 136.833 226.762 135.6 227.429 134.2L229.079 130.9C229.879 129.333 231.012 128.55 232.479 128.55C235.412 128.55 236.879 131.333 236.879 136.9C236.879 138.133 236.729 139.517 236.429 141.05C236.162 142.55 235.679 144.083 234.979 145.65C234.312 147.183 233.396 148.633 232.229 150C231.729 150.333 230.862 150.767 229.629 151.3C228.396 151.833 226.996 152.383 225.429 152.95C223.862 153.517 222.329 154 220.829 154.4ZM267.984 103.55C267.15 103.55 266.417 103.317 265.784 102.85C265.15 102.35 264.834 101.383 264.834 99.95C264.834 99.5833 264.884 99.1833 264.984 98.75C265.05 98.3167 265.15 97.8333 265.284 97.3H265.034C264.6 97.3 264.117 97.4 263.584 97.6C263.05 97.8 262.55 98.0667 262.084 98.4L261.734 98C262.2 97.4 262.834 96.8333 263.634 96.3C264.434 95.7333 265.134 95.45 265.734 95.45C265.9 95.45 266.084 95.5 266.284 95.6C266.45 95.7 266.534 95.9 266.534 96.2C266.534 96.3333 266.484 96.6667 266.384 97.2C266.284 97.7 266.234 98.2333 266.234 98.8C266.234 100.433 266.95 101.25 268.384 101.25C269.45 101.25 270.667 100.717 272.034 99.65C271.6 99.2167 271.317 98.8 271.184 98.4C271.05 97.9667 270.984 97.55 270.984 97.15C270.984 96.5833 271.15 96.0167 271.484 95.45C271.85 94.8833 272.284 94.4167 272.784 94.05C273.317 93.65 273.85 93.45 274.384 93.45C275.617 93.45 276.234 94.1333 276.234 95.5C276.234 96.3 276.017 97.1333 275.584 98C275.15 98.8667 274.45 99.7833 273.484 100.75C271.617 102.617 269.784 103.55 267.984 103.55ZM273.634 98.05C273.9 97.7833 274.134 97.5167 274.334 97.25C274.534 96.9833 274.634 96.6333 274.634 96.2C274.634 95.5667 274.284 95.25 273.584 95.25C272.817 95.25 272.434 95.6167 272.434 96.35C272.434 96.65 272.55 96.9333 272.784 97.2C273.017 97.4667 273.3 97.75 273.634 98.05ZM261.314 168.05C258.481 168.05 256.131 167.45 254.264 166.25C252.398 165.05 250.998 163.467 250.064 161.5C249.164 159.567 248.714 157.467 248.714 155.2C248.714 152.1 249.064 149 249.764 145.9C250.464 142.767 251.698 139.333 253.464 135.6L254.864 136.15C253.931 138.417 253.231 140.517 252.764 142.45C252.298 144.35 252.064 146.15 252.064 147.85C252.064 150.05 252.398 151.883 253.064 153.35C253.731 154.817 254.614 155.967 255.714 156.8C256.848 157.633 258.114 158.217 259.514 158.55C260.914 158.917 262.331 159.1 263.764 159.1C266.198 159.1 268.498 158.667 270.664 157.8C272.864 156.967 274.714 155.767 276.214 154.2C277.648 152.7 278.731 151.2 279.464 149.7C280.198 148.167 280.648 146.867 280.814 145.8C280.981 144.9 281.114 143.75 281.214 142.35C281.348 140.95 281.481 138.883 281.614 136.15L282.664 110.9C282.764 108.767 282.881 106.967 283.014 105.5C283.181 104 283.398 102.683 283.664 101.55C283.931 100.383 284.248 99.2667 284.614 98.2C284.981 97.1333 285.431 95.95 285.964 94.65L287.014 95.05C286.848 95.8833 286.664 97.0333 286.464 98.5C286.298 99.9667 286.148 101.883 286.014 104.25C285.914 106.583 285.864 109.483 285.864 112.95C285.864 115.317 286.014 117.317 286.314 118.95C286.648 120.583 287.264 121.817 288.164 122.65C289.098 123.483 290.431 123.9 292.164 123.9C292.964 123.9 293.514 124.167 293.814 124.7C294.148 125.233 294.314 125.917 294.314 126.75C294.314 128.017 294.064 129.017 293.564 129.75C293.064 130.483 292.464 131.017 291.764 131.35C291.064 131.65 290.381 131.8 289.714 131.8C288.648 131.8 287.748 131.633 287.014 131.3C286.281 130.967 285.714 130.6 285.314 130.2L285.164 134.3C285.131 135.367 284.964 137 284.664 139.2C284.364 141.367 283.814 143.867 283.014 146.7C282.214 149.5 281.031 152.4 279.464 155.4C278.164 157.867 276.614 160.05 274.814 161.95C273.048 163.883 271.031 165.383 268.764 166.45C266.531 167.517 264.048 168.05 261.314 168.05ZM296.394 145.9C295.661 145.167 294.961 144.483 294.294 143.85C293.594 143.25 292.911 142.683 292.244 142.15V141.7C292.544 141.267 292.994 140.7 293.594 140C294.161 139.333 294.744 138.683 295.344 138.05C295.911 137.45 296.327 137.083 296.594 136.95H297.044C297.877 137.45 298.577 137.917 299.144 138.35C299.711 138.783 300.144 139.233 300.444 139.7C301.044 138.967 301.711 138.2 302.444 137.4C303.177 136.633 303.694 136.167 303.994 136H304.394C305.727 136.833 306.711 137.567 307.344 138.2C308.011 138.867 308.344 139.533 308.344 140.2C308.344 141.467 307.011 143.05 304.344 144.95H303.894C302.761 143.817 301.694 142.85 300.694 142.05C300.227 143.117 298.944 144.4 296.844 145.9H296.394ZM289.697 132C288.297 132 287.597 131.05 287.597 129.15C287.597 127.917 287.847 126.933 288.347 126.2C288.814 125.467 289.397 124.933 290.097 124.6C290.831 124.267 291.531 124.1 292.197 124.1C294.197 124.1 295.797 123.333 296.997 121.8L298.697 119.55C299.231 118.817 299.914 118.45 300.747 118.45C301.514 118.45 302.164 118.617 302.697 118.95C303.231 119.283 303.914 119.45 304.747 119.45C305.181 119.45 305.531 119.65 305.797 120.05C306.064 120.45 306.197 120.883 306.197 121.35C306.197 122.517 305.831 123.383 305.097 123.95C304.364 124.483 303.681 124.75 303.047 124.75C302.114 124.75 301.297 124.55 300.597 124.15C299.964 123.75 299.481 123.55 299.147 123.55C298.747 123.55 298.381 123.783 298.047 124.25C297.714 124.683 297.314 125.267 296.847 126C296.181 127.067 295.497 128.067 294.797 129C294.131 129.9 293.381 130.633 292.547 131.2C291.747 131.733 290.797 132 289.697 132ZM309.975 138.2L309.625 137.95C309.758 137.217 310.092 136.55 310.625 135.95C311.158 135.383 311.742 134.883 312.375 134.45C313.008 134.05 313.525 133.75 313.925 133.55L320.775 129.75C321.342 129.417 321.708 129.183 321.875 129.05L322.325 129.3C322.058 130 321.725 130.617 321.325 131.15C320.925 131.683 320.342 132.167 319.575 132.6L312.625 136.4C311.825 136.833 311.242 137.183 310.875 137.45C310.475 137.717 310.175 137.967 309.975 138.2ZM303.027 125C302.694 125 302.377 124.833 302.077 124.5C301.744 124.133 301.577 123.65 301.577 123.05C301.577 122.017 301.911 121.2 302.577 120.6C303.211 120 303.911 119.7 304.677 119.7C305.944 119.7 307.411 119.333 309.077 118.6C310.777 117.867 312.344 116.533 313.777 114.6C314.811 113.2 315.661 112.117 316.327 111.35C316.994 110.583 317.594 110.05 318.127 109.75C318.694 109.45 319.311 109.3 319.977 109.3C320.844 109.3 321.661 109.433 322.427 109.7C323.227 109.933 323.894 110.233 324.427 110.6C324.961 110.933 325.244 111.267 325.277 111.6C325.244 112.2 325.027 112.95 324.627 113.85C324.227 114.75 323.711 115.567 323.077 116.3C322.444 117 321.744 117.35 320.977 117.35C320.611 117.35 320.027 117.133 319.227 116.7C318.794 116.433 318.361 116.233 317.927 116.1C317.494 115.967 317.044 115.9 316.577 115.9C316.211 115.9 315.827 116 315.427 116.2C315.061 116.4 314.544 116.8 313.877 117.4C313.211 118 312.277 118.917 311.077 120.15C309.577 121.683 308.244 122.883 307.077 123.75C305.944 124.583 304.594 125 303.027 125ZM325.898 79.75L325.548 79.5C325.681 78.7667 326.014 78.1167 326.548 77.55C327.081 76.95 327.664 76.45 328.298 76.05C328.931 75.65 329.448 75.3333 329.848 75.1L336.698 71.25C336.964 71.0833 337.181 70.95 337.348 70.85C337.548 70.75 337.698 70.6667 337.798 70.6L338.248 70.85C337.981 71.55 337.648 72.1667 337.248 72.7C336.848 73.2333 336.264 73.7167 335.498 74.15L328.548 77.95C327.748 78.3833 327.164 78.7333 326.798 79C326.398 79.2667 326.098 79.5167 325.898 79.75ZM335.298 118.35C334.598 117.617 333.898 116.933 333.198 116.3C332.498 115.7 331.815 115.133 331.148 114.6V114.2C331.448 113.767 331.898 113.2 332.498 112.5C333.065 111.833 333.648 111.183 334.248 110.55C334.815 109.95 335.231 109.567 335.498 109.4H335.948C337.248 110.233 338.215 110.967 338.848 111.6C339.515 112.267 339.848 112.933 339.848 113.6C339.848 114.8 338.465 116.383 335.698 118.35H335.298ZM322.916 112.25C320.983 112.25 319.683 112.05 319.016 111.65C318.349 111.25 318.016 110.75 318.016 110.15C318.016 109.383 318.333 108.35 318.966 107.05C320.033 104.883 321.466 103.117 323.266 101.75C325.066 100.35 327.499 99 330.566 97.7L336.066 95.35C335.566 95.1167 334.799 94.8833 333.766 94.65C332.766 94.3833 331.649 94.1667 330.416 94C329.183 93.8 327.983 93.7 326.816 93.7C325.683 93.7 324.716 93.8667 323.916 94.2C323.149 94.5333 322.416 95.1333 321.716 96L320.516 95.45C322.716 91.0167 325.649 88.8 329.316 88.8C330.183 88.8 331.216 88.9 332.416 89.1C333.616 89.3 334.833 89.55 336.066 89.85C337.299 90.15 338.416 90.4833 339.416 90.85C340.416 91.2167 341.166 91.5833 341.666 91.95L341.716 92.3C341.049 93.5667 340.283 94.6333 339.416 95.5C338.583 96.3667 337.549 97.15 336.316 97.85C335.116 98.55 333.616 99.3 331.816 100.1C328.883 101.367 326.549 102.5 324.816 103.5C323.116 104.5 322.033 105.333 321.566 106C321.299 106.367 321.166 106.767 321.166 107.2C321.166 107.667 321.533 108.1 322.266 108.5L323.516 109.15C324.183 109.483 324.633 109.8 324.866 110.1C325.099 110.433 325.216 110.817 325.216 111.25C325.216 111.917 324.449 112.25 322.916 112.25ZM358.12 135.55C357.287 135.55 356.554 135.317 355.92 134.85C355.287 134.35 354.97 133.383 354.97 131.95C354.97 131.583 355.02 131.183 355.12 130.75C355.187 130.317 355.287 129.833 355.42 129.3H355.17C354.737 129.3 354.254 129.4 353.72 129.6C353.187 129.8 352.687 130.067 352.22 130.4L351.87 130C352.337 129.4 352.97 128.833 353.77 128.3C354.57 127.733 355.27 127.45 355.87 127.45C356.037 127.45 356.22 127.5 356.42 127.6C356.587 127.7 356.67 127.9 356.67 128.2C356.67 128.333 356.62 128.667 356.52 129.2C356.42 129.7 356.37 130.233 356.37 130.8C356.37 132.433 357.087 133.25 358.52 133.25C359.587 133.25 360.804 132.717 362.17 131.65C361.737 131.217 361.454 130.8 361.32 130.4C361.187 129.967 361.12 129.55 361.12 129.15C361.12 128.583 361.287 128.017 361.62 127.45C361.987 126.883 362.42 126.417 362.92 126.05C363.454 125.65 363.987 125.45 364.52 125.45C365.754 125.45 366.37 126.133 366.37 127.5C366.37 128.3 366.154 129.133 365.72 130C365.287 130.867 364.587 131.783 363.62 132.75C361.754 134.617 359.92 135.55 358.12 135.55ZM363.77 130.05C364.037 129.783 364.27 129.517 364.47 129.25C364.67 128.983 364.77 128.633 364.77 128.2C364.77 127.567 364.42 127.25 363.72 127.25C362.954 127.25 362.57 127.617 362.57 128.35C362.57 128.65 362.687 128.933 362.92 129.2C363.154 129.467 363.437 129.75 363.77 130.05ZM342.521 172.9L341.321 171.55C344.587 168.683 347.587 165.35 350.321 161.55C353.054 157.75 355.804 153.583 358.571 149.05C359.237 147.983 359.921 146.95 360.621 145.95C361.321 144.95 362.004 144.017 362.671 143.15C364.271 141.083 365.737 139.517 367.071 138.45C368.437 137.383 369.721 136.667 370.921 136.3C372.154 135.933 373.371 135.75 374.571 135.75C375.037 135.75 375.471 135.867 375.871 136.1C376.304 136.3 376.521 136.683 376.521 137.25C376.521 138.317 376.221 139.35 375.621 140.35C375.054 141.317 374.304 142.117 373.371 142.75C372.437 143.35 371.421 143.65 370.321 143.65C368.687 143.65 367.254 144.083 366.021 144.95C364.821 145.783 363.621 147.017 362.421 148.65C361.221 150.25 359.821 152.2 358.221 154.5C355.754 158.067 353.287 161.417 350.821 164.55C348.354 167.683 345.587 170.467 342.521 172.9ZM364.204 123.05L363.704 122.95C363.738 122.25 363.938 121.517 364.304 120.75C364.671 119.983 365.304 119.1 366.204 118.1C367.104 117.067 368.371 115.833 370.004 114.4L370.604 114.3C371.771 115.033 372.838 115.783 373.804 116.55C374.638 117.217 375.288 117.8 375.754 118.3C376.254 118.767 376.621 119.267 376.854 119.8C377.088 120.333 377.254 121 377.354 121.8L376.904 122C374.804 120.433 372.638 118.95 370.404 117.55L368.754 118.9C367.821 119.633 366.971 120.35 366.204 121.05C365.438 121.75 364.771 122.417 364.204 123.05ZM372.603 164.35C371.903 163.617 371.203 162.933 370.503 162.3C369.803 161.7 369.119 161.133 368.453 160.6V160.2C368.753 159.767 369.203 159.2 369.803 158.5C370.369 157.833 370.953 157.183 371.553 156.55C372.119 155.95 372.536 155.567 372.803 155.4H373.253C374.553 156.233 375.519 156.967 376.153 157.6C376.819 158.267 377.153 158.933 377.153 159.6C377.153 160.8 375.769 162.383 373.003 164.35H372.603ZM374.813 144.25C374.479 144.25 373.979 144.217 373.313 144.15C372.646 144.117 372.013 144.083 371.413 144.05C370.813 144.017 370.446 144 370.312 144C369.213 144 368.663 143.467 368.663 142.4C368.663 141.3 368.946 140.283 369.512 139.35C370.046 138.383 370.746 137.6 371.613 137C372.513 136.4 373.479 136.1 374.513 136.1C375.513 136.1 376.296 136.15 376.863 136.25C377.463 136.317 378.179 136.35 379.013 136.35C379.479 136.35 379.863 136.467 380.163 136.7C380.496 136.933 380.663 137.35 380.663 137.95C380.663 139.05 380.379 140.083 379.813 141.05C379.279 141.983 378.563 142.75 377.662 143.35C376.796 143.95 375.846 144.25 374.813 144.25ZM389.374 113.75L389.024 113.5C389.158 112.767 389.491 112.117 390.024 111.55C390.558 110.95 391.141 110.45 391.774 110.05C392.408 109.65 392.924 109.333 393.324 109.1L400.174 105.25C400.441 105.083 400.658 104.95 400.824 104.85C401.024 104.75 401.174 104.667 401.274 104.6L401.724 104.85C401.458 105.55 401.124 106.167 400.724 106.7C400.324 107.233 399.741 107.717 398.974 108.15L392.024 111.95C391.224 112.383 390.641 112.733 390.274 113C389.874 113.267 389.574 113.517 389.374 113.75ZM374.756 144C373.656 144 373.106 143.467 373.106 142.4C373.106 141.433 373.356 140.467 373.856 139.5C374.323 138.533 374.989 137.733 375.856 137.1C376.756 136.433 377.806 136.1 379.006 136.1C379.906 136.1 380.656 136 381.256 135.8C381.856 135.567 382.439 135.15 383.006 134.55C383.606 133.917 384.289 133 385.056 131.8C385.623 130.933 386.356 130.5 387.256 130.5C387.589 130.5 388.056 130.633 388.656 130.9C389.256 131.167 389.739 131.367 390.106 131.5C391.973 128.967 393.839 126.667 395.706 124.6C397.606 122.533 399.523 120.9 401.456 119.7C403.389 118.467 405.323 117.85 407.256 117.85C408.456 117.85 409.389 118.167 410.056 118.8C410.723 119.4 411.056 120.15 411.056 121.05C411.056 122.217 410.789 123.45 410.256 124.75C409.756 126.05 409.123 127.3 408.356 128.5C407.589 129.7 406.789 130.767 405.956 131.7C405.156 132.633 404.456 133.35 403.856 133.85C402.589 134.883 401.006 135.833 399.106 136.7C397.206 137.567 395.189 138 393.056 138C391.956 138 390.906 137.85 389.906 137.55C388.906 137.217 387.923 136.783 386.956 136.25C386.256 135.85 385.739 135.65 385.406 135.65C385.073 135.65 384.839 135.767 384.706 136C384.573 136.2 384.373 136.483 384.106 136.85C383.273 138.083 382.539 139.1 381.906 139.9C381.306 140.667 380.789 141.25 380.356 141.65C379.323 142.617 378.373 143.25 377.506 143.55C376.673 143.85 375.756 144 374.756 144ZM393.806 132.35C395.273 132.35 396.756 132.167 398.256 131.8C399.756 131.433 401.123 130.967 402.356 130.4C403.623 129.8 404.639 129.15 405.406 128.45C406.173 127.75 406.556 127.05 406.556 126.35C406.556 125.75 406.223 125.25 405.556 124.85C404.923 124.417 404.123 124.2 403.156 124.2C401.456 124.2 399.756 124.783 398.056 125.95C396.356 127.117 394.423 129.183 392.256 132.15C392.523 132.217 392.789 132.267 393.056 132.3C393.323 132.333 393.573 132.35 393.806 132.35ZM414.277 95.75L413.927 95.5C414.06 94.7667 414.393 94.1167 414.927 93.55C415.46 92.95 416.043 92.45 416.677 92.05C417.31 91.65 417.827 91.3333 418.227 91.1L425.077 87.25C425.343 87.0833 425.56 86.95 425.727 86.85C425.927 86.75 426.077 86.6667 426.177 86.6L426.627 86.85C426.36 87.55 426.027 88.1667 425.627 88.7C425.227 89.2333 424.643 89.7167 423.877 90.15L416.927 93.95C416.127 94.3833 415.543 94.7333 415.177 95C414.777 95.2667 414.477 95.5167 414.277 95.75ZM419.527 105.4C418.127 103.967 416.743 102.733 415.377 101.7V101.25C415.677 100.817 416.127 100.267 416.727 99.6C417.293 98.9 417.877 98.25 418.477 97.65C419.043 97.0167 419.46 96.6167 419.727 96.45H420.177C421.71 97.4167 422.743 98.2333 423.277 98.9C423.81 99.5333 424.077 100.133 424.077 100.7C424.077 101.9 422.693 103.467 419.927 105.4H419.527ZM393.018 138C391.718 138 391.068 137.617 391.068 136.85C391.068 136.517 391.184 136.25 391.418 136.05C391.618 135.85 392.051 135.75 392.718 135.75C394.684 135.717 396.801 135.533 399.068 135.2C401.334 134.833 403.368 134.483 405.168 134.15C410.468 133.083 414.668 131.617 417.768 129.75C419.401 128.783 420.601 127.733 421.368 126.6C422.168 125.467 422.568 124.283 422.568 123.05C421.534 123.717 420.401 124.05 419.168 124.05C418.134 124.05 417.201 123.733 416.368 123.1C415.568 122.433 415.168 121.583 415.168 120.55C415.168 119.483 415.468 118.35 416.068 117.15L417.568 114.15C418.268 112.683 419.318 111.95 420.718 111.95C421.918 111.95 422.901 112.317 423.668 113.05C424.434 113.783 425.001 114.733 425.368 115.9C425.734 117.067 425.918 118.3 425.918 119.6C425.918 123.967 424.168 127.7 420.668 130.8C417.201 133.867 411.901 135.983 404.768 137.15C403.434 137.383 401.851 137.583 400.018 137.75C398.218 137.883 395.884 137.967 393.018 138Z" fill="black"/>
</svg>
