<svg width="62" height="62" viewBox="0 0 62 62" fill="none" xmlns="http://www.w3.org/2000/svg">
<g clip-path="url(#clip0_89_2)">
<path fill-rule="evenodd" clip-rule="evenodd" d="M0 62H62V0H0V62Z" fill="#007EBB"/>
<path fill-rule="evenodd" clip-rule="evenodd" d="M30.9987 11.1944C19.5868 11.1944 10.3333 20.4833 10.3333 31.9443C10.3333 41.11 16.2543 48.8869 24.468 51.6309C25.5014 51.8215 25.8785 51.1809 25.8785 50.631C25.8785 50.1383 25.8604 48.8337 25.8501 47.1025C20.1009 48.3565 18.888 44.3209 18.888 44.3209C17.949 41.9244 16.594 41.2864 16.594 41.2864C14.7172 39.9987 16.7361 40.0246 16.7361 40.0246C18.8092 40.1711 19.9007 42.163 19.9007 42.163C21.7452 45.3337 24.738 44.4181 25.916 43.8864C26.1033 42.5456 26.638 41.6313 27.2283 41.1126C22.639 40.5887 17.8146 38.8095 17.8146 30.8589C17.8146 28.5934 18.6194 26.7416 19.942 25.2905C19.7289 24.7653 19.0198 22.6567 20.1435 19.7999C20.1435 19.7999 21.8795 19.2423 25.8269 21.9267C27.4763 21.4663 29.2433 21.2368 31.0013 21.2277C32.7566 21.2368 34.5249 21.4663 36.1757 21.9267C40.1204 19.2423 41.8526 19.7999 41.8526 19.7999C42.9802 22.6567 42.2711 24.7653 42.0579 25.2905C43.3832 26.7416 44.1827 28.5934 44.1827 30.8589C44.1827 38.829 39.3506 40.5835 34.7471 41.0971C35.4885 41.7377 36.1499 43.0033 36.1499 44.9394C36.1499 47.7133 36.124 49.9502 36.124 50.631C36.124 51.1861 36.496 51.8319 37.5449 51.6283C45.7508 48.8791 51.6666 41.1074 51.6666 31.9443C51.6666 20.4833 42.4131 11.1944 30.9987 11.1944Z" fill="white"/>
</g>
<defs>
<clipPath id="clip0_89_2">
<rect width="62" height="62" fill="white"/>
</clipPath>
</defs>
</svg>
