<svg width="63" height="64" viewBox="0 0 63 64" fill="none" xmlns="http://www.w3.org/2000/svg">
<path fill-rule="evenodd" clip-rule="evenodd" d="M0 63.1651H62.4952V0.669861H0V63.1651Z" fill="#007EBB"/>
<path fill-rule="evenodd" clip-rule="evenodd" d="M53.8153 54.4852H44.5414V38.6896C44.5414 34.3589 42.8958 31.9388 39.468 31.9388C35.7391 31.9388 33.7909 34.4573 33.7909 38.6896V54.4852H24.8534V24.3949H33.7909V28.448C33.7909 28.448 36.4781 23.4756 42.8635 23.4756C49.2459 23.4756 53.8153 27.3731 53.8153 35.4339V54.4852ZM14.191 20.4548C11.1467 20.4548 8.67987 17.9686 8.67987 14.9023C8.67987 11.836 11.1467 9.34975 14.191 9.34975C17.2353 9.34975 19.7007 11.836 19.7007 14.9023C19.7007 17.9686 17.2353 20.4548 14.191 20.4548ZM9.57611 54.4852H18.8956V24.3949H9.57611V54.4852Z" fill="white"/>
</svg>
