<svg width="63" height="64" viewBox="0 0 63 64" fill="none" xmlns="http://www.w3.org/2000/svg">
<path fill-rule="evenodd" clip-rule="evenodd" d="M0 63.3301H62.4952V0.83493H0V63.3301Z" fill="#007EBB"/>
<path d="M11.9076 17.9569L31.1326 31.4025L31.5644 31.1001L32.572 30.3933C32.5861 30.3837 32.6003 30.3745 32.6147 30.3654L50.3523 17.958L11.9076 17.9569ZM52.9753 19.2355L35.5097 31.4411L52.9753 46.0455V19.2355ZM9.28986 19.2404V46.0117L26.6862 31.4121L9.28986 19.2404ZM28.8667 32.936L11.4811 47.526H50.7308L33.3291 32.9795L31.9643 33.9359C31.7248 34.1035 31.4304 34.1945 31.1272 34.1945C30.8241 34.1945 30.5296 34.1035 30.2902 33.9359L28.8667 32.936Z" fill="white"/>
</svg>
