<svg width="63" height="63" viewBox="0 0 63 63" fill="none" xmlns="http://www.w3.org/2000/svg">
<path fill-rule="evenodd" clip-rule="evenodd" d="M0 63H62.4952V0.504822H0V63Z" fill="#007EBB"/>
<path d="M49.8656 42.0561L42.799 36.89C42.4226 36.6149 41.9606 36.4824 41.4955 36.5163C41.0305 36.5502 40.5926 36.7483 40.2601 37.0752L36.4847 40.7828L36.4718 40.7957C36.1546 41.1024 35.7293 41.2717 35.2881 41.2668C34.8469 41.2619 34.4254 41.0831 34.1151 40.7694L27.5888 34.2431L22.2306 28.8849C21.9169 28.5746 21.7382 28.1531 21.7333 27.7119C21.7283 27.2707 21.8976 26.8454 22.2043 26.5282L22.2172 26.5153L25.9248 22.7399C26.2517 22.4074 26.4498 21.9695 26.4837 21.5045C26.5176 21.0394 26.3852 20.5775 26.11 20.201L20.9439 13.1345C20.7764 12.9053 20.5613 12.7151 20.3134 12.577C20.0654 12.4388 19.7905 12.3559 19.5075 12.3341C19.2245 12.3122 18.9401 12.3519 18.6739 12.4503C18.4077 12.5487 18.1659 12.7036 17.9652 12.9043L15.3019 15.5677C15.1337 15.7359 14.9731 15.9105 14.82 16.0916C14.3312 16.6692 13.2728 17.9647 12.8704 18.7981C11.9456 20.7493 11.6232 22.9318 11.9442 25.0671C12.2652 27.2024 13.2152 29.1936 14.6728 30.7866L32.2134 48.3272C33.8064 49.7848 35.7976 50.7348 37.9329 51.0558C40.0682 51.3769 42.2507 51.0544 44.2019 50.1296C45.0354 49.7272 46.3308 48.6689 46.9085 48.18C47.0895 48.027 47.2642 47.8664 47.4324 47.6981L50.0957 45.0348C50.2964 44.8341 50.4513 44.5923 50.5497 44.3261C50.6482 44.0599 50.6878 43.7755 50.6659 43.4925C50.6441 43.2095 50.5612 42.9346 50.4231 42.6866C50.2849 42.4387 50.0947 42.2236 49.8656 42.0561Z" fill="white"/>
</svg>
